<svg width="42" height="63" viewBox="0 0 42 63" fill="none" xmlns="http://www.w3.org/2000/svg">
<mask id="path-1-outside-1_250_2" maskUnits="userSpaceOnUse" x="0" y="0" width="42" height="63" fill="black">
<rect fill="white" width="42" height="63"/>
<path d="M10.501 10.3H20.627C24.0837 10.3 26.605 11.1133 28.191 12.74C29.777 14.326 30.57 16.7863 30.57 20.121V21.829C30.57 24.025 30.204 25.8143 29.472 27.197C28.7807 28.5797 27.703 29.576 26.239 30.186V30.308C29.5737 31.4467 31.241 34.4153 31.241 39.214V42.874C31.241 46.168 30.3667 48.6893 28.618 50.438C26.91 52.146 24.3887 53 21.054 53H10.501V10.3ZM19.834 27.685C21.176 27.685 22.1723 27.3393 22.823 26.648C23.5143 25.9567 23.86 24.7977 23.86 23.171V20.792C23.86 19.2467 23.5753 18.1283 23.006 17.437C22.4773 16.7457 21.6233 16.4 20.444 16.4H17.211V27.685H19.834ZM21.054 46.9C22.2333 46.9 23.1077 46.595 23.677 45.985C24.2463 45.3343 24.531 44.2363 24.531 42.691V38.97C24.531 37.018 24.1853 35.676 23.494 34.944C22.8433 34.1713 21.7453 33.785 20.2 33.785H17.211V46.9H21.054Z"/>
</mask>
<path d="M10.501 10.3H20.627C24.0837 10.3 26.605 11.1133 28.191 12.74C29.777 14.326 30.57 16.7863 30.57 20.121V21.829C30.57 24.025 30.204 25.8143 29.472 27.197C28.7807 28.5797 27.703 29.576 26.239 30.186V30.308C29.5737 31.4467 31.241 34.4153 31.241 39.214V42.874C31.241 46.168 30.3667 48.6893 28.618 50.438C26.91 52.146 24.3887 53 21.054 53H10.501V10.3ZM19.834 27.685C21.176 27.685 22.1723 27.3393 22.823 26.648C23.5143 25.9567 23.86 24.7977 23.86 23.171V20.792C23.86 19.2467 23.5753 18.1283 23.006 17.437C22.4773 16.7457 21.6233 16.4 20.444 16.4H17.211V27.685H19.834ZM21.054 46.9C22.2333 46.9 23.1077 46.595 23.677 45.985C24.2463 45.3343 24.531 44.2363 24.531 42.691V38.97C24.531 37.018 24.1853 35.676 23.494 34.944C22.8433 34.1713 21.7453 33.785 20.2 33.785H17.211V46.9H21.054Z" fill="#646CFF"/>
<path d="M10.501 10.3V0.299997H0.501V10.3H10.501ZM28.191 12.74L21.031 19.721L21.0752 19.7663L21.1199 19.8111L28.191 12.74ZM29.472 27.197L20.6341 22.5181L20.5797 22.6209L20.5277 22.7249L29.472 27.197ZM26.239 30.186L22.3928 20.9552L16.239 23.5193V30.186H26.239ZM26.239 30.308H16.239V37.4603L23.0076 39.7715L26.239 30.308ZM28.618 50.438L35.6891 57.5091L35.6891 57.5091L28.618 50.438ZM10.501 53H0.501V63H10.501V53ZM22.823 26.648L15.7519 19.5769L15.6448 19.684L15.541 19.7943L22.823 26.648ZM23.006 17.437L15.0624 23.5115L15.172 23.6548L15.2867 23.7941L23.006 17.437ZM17.211 16.4V6.4H7.211V16.4H17.211ZM17.211 27.685H7.211V37.685H17.211V27.685ZM23.677 45.985L30.9876 52.8082L31.0971 52.6908L31.2028 52.5701L23.677 45.985ZM23.494 34.944L15.8449 41.3854L16.0283 41.6032L16.2239 41.8102L23.494 34.944ZM17.211 33.785V23.785H7.211V33.785H17.211ZM17.211 46.9H7.211V56.9H17.211V46.9ZM10.501 10.3V20.3H20.627V10.3V0.299997H10.501V10.3ZM20.627 10.3V20.3C21.1039 20.3 21.4544 20.3283 21.696 20.3612C21.9375 20.3941 22.0423 20.4277 22.0405 20.4271C22.0357 20.4255 21.9133 20.3855 21.7188 20.2699C21.5189 20.1511 21.2757 19.972 21.031 19.721L28.191 12.74L35.351 5.759C31.0959 1.39477 25.3929 0.299997 20.627 0.299997V10.3ZM28.191 12.74L21.1199 19.8111C20.89 19.5812 20.7236 19.3526 20.6114 19.1617C20.5019 18.9755 20.4616 18.8555 20.4574 18.8425C20.4542 18.8324 20.4839 18.9221 20.5136 19.1397C20.5435 19.3576 20.57 19.6792 20.57 20.121H30.57H40.57C40.57 15.4144 39.4675 9.87438 35.2621 5.66893L28.191 12.74ZM30.57 20.121H20.57V21.829H30.57H40.57V20.121H30.57ZM30.57 21.829H20.57C20.57 22.3843 20.5226 22.6953 20.4984 22.814C20.4751 22.9279 20.4875 22.7951 20.6341 22.5181L29.472 27.197L38.3099 31.8759C40.0504 28.5881 40.57 25.0354 40.57 21.829H30.57ZM29.472 27.197L20.5277 22.7249C20.6925 22.3953 20.9632 22.0023 21.3567 21.6385C21.7473 21.2774 22.1284 21.0654 22.3928 20.9552L26.239 30.186L30.0852 39.4168C33.7015 37.91 36.6215 35.2587 38.4163 31.6691L29.472 27.197ZM26.239 30.186H16.239V30.308H26.239H36.239V30.186H26.239ZM26.239 30.308L23.0076 39.7715C22.8084 39.7035 22.461 39.5452 22.0813 39.2335C21.6972 38.9181 21.4309 38.5691 21.2716 38.2854C21.1234 38.0217 21.119 37.9072 21.1511 38.0569C21.1846 38.2131 21.241 38.5794 21.241 39.214H31.241H41.241C41.241 35.7634 40.6573 31.9596 38.7094 28.4916C36.6253 24.7808 33.3772 22.1785 29.4704 20.8445L26.239 30.308ZM31.241 39.214H21.241V42.874H31.241H41.241V39.214H31.241ZM31.241 42.874H21.241C21.241 43.6571 21.1348 43.966 21.1372 43.9592C21.1406 43.9494 21.1699 43.8694 21.2448 43.7474C21.3212 43.6231 21.4233 43.4905 21.5469 43.3669L28.618 50.438L35.6891 57.5091C39.8711 53.327 41.241 47.9102 41.241 42.874H31.241ZM28.618 50.438L21.5469 43.3669C21.7014 43.2125 21.861 43.092 22.0033 43.0058C22.1425 42.9215 22.2314 42.8903 22.2379 42.8881C22.2413 42.8869 22.1569 42.9157 21.9594 42.9445C21.7609 42.9735 21.4644 43 21.054 43V53V63C26.0112 63 31.4853 61.7128 35.6891 57.5091L28.618 50.438ZM21.054 53V43H10.501V53V63H21.054V53ZM10.501 53H20.501V10.3H10.501H0.501V53H10.501ZM19.834 27.685V37.685C22.7691 37.685 26.8925 36.915 30.105 33.5016L22.823 26.648L15.541 19.7943C17.4522 17.7637 19.5829 17.685 19.834 17.685V27.685ZM22.823 26.648L29.8941 33.7191C33.3783 30.2348 33.86 25.784 33.86 23.171H23.86H13.86C13.86 23.327 13.8375 23.007 14.0179 22.4022C14.2087 21.7625 14.6768 20.6521 15.7519 19.5769L22.823 26.648ZM23.86 23.171H33.86V20.792H23.86H13.86V23.171H23.86ZM23.86 20.792H33.86C33.86 18.4528 33.5115 14.4631 30.7253 11.0799L23.006 17.437L15.2867 23.7941C14.4068 22.7256 14.0753 21.7316 13.9555 21.261C13.8368 20.7947 13.86 20.5896 13.86 20.792H23.86ZM23.006 17.437L30.9496 11.3625C27.9082 7.38525 23.5498 6.4 20.444 6.4V16.4V26.4C20.0924 26.4 19.2647 26.3527 18.2171 25.9287C17.0873 25.4714 15.9488 24.6706 15.0624 23.5115L23.006 17.437ZM20.444 16.4V6.4H17.211V16.4V26.4H20.444V16.4ZM17.211 16.4H7.211V27.685H17.211H27.211V16.4H17.211ZM17.211 27.685V37.685H19.834V27.685V17.685H17.211V27.685ZM21.054 46.9V56.9C23.8338 56.9 27.8536 56.1659 30.9876 52.8082L23.677 45.985L16.3664 39.1618C18.3617 37.0241 20.6329 36.9 21.054 36.9V46.9ZM23.677 45.985L31.2028 52.5701C34.2177 49.1245 34.531 44.9435 34.531 42.691H24.531H14.531C14.531 42.9 14.5065 42.6694 14.6375 42.1639C14.7688 41.6575 15.1415 40.554 16.1512 39.3999L23.677 45.985ZM24.531 42.691H34.531V38.97H24.531H14.531V42.691H24.531ZM24.531 38.97H34.531C34.531 36.5599 34.2524 31.7712 30.7641 28.0778L23.494 34.944L16.2239 41.8102C15.0529 40.5704 14.6857 39.3736 14.5878 38.9938C14.4848 38.594 14.531 38.5221 14.531 38.97H24.531ZM23.494 34.944L31.1431 28.5026C27.7698 24.4968 23.12 23.785 20.2 23.785V33.785V43.785C20.1902 43.785 19.6659 43.7902 18.8634 43.5079C17.9883 43.2 16.8356 42.5618 15.8449 41.3854L23.494 34.944ZM20.2 33.785V23.785H17.211V33.785V43.785H20.2V33.785ZM17.211 33.785H7.211V46.9H17.211H27.211V33.785H17.211ZM17.211 46.9V56.9H21.054V46.9V36.9H17.211V46.9Z" fill="#FFFDFD" mask="url(#path-1-outside-1_250_2)"/>
</svg>
